<svg width="252" height="302" viewBox="0 0 252 302" fill="none" xmlns="http://www.w3.org/2000/svg">
<g opacity="0.4">
<path d="M-173.008 58.2775L-173.158 58.8075L-172.658 58.7075L-143.508 94.2675L-143.668 94.3575L-143.098 94.7775L-142.868 95.0575L-142.788 95.0075L-82.1178 139.537L-150.258 149.027L-149.968 149.167L-232.968 171.637L-232.708 172.597L-148.578 149.818L-85.7878 179.537L-132.858 244.907L-133.128 244.847L-133.128 245.297L-135.098 248.027L-133.158 246.508L-133.878 290.917L-136.678 293.927L-133.238 291.627L-75.5779 294.287L-92.7778 315.318L-96.0879 316.427L-92.6478 316.258L-46.7878 352.087L185.742 535.178L185.692 538.027L186.282 536.358L187.612 539.687L186.772 534.978L243.822 372.798L244.742 372.238L167.752 356.027L145.672 304.438L146.382 304.397L145.822 303.998L206.302 265.598L243.942 300.777L244.622 300.048L207.172 265.048L242.052 242.897L244.492 242.277L172.792 232.928L93.7921 159.108L190.972 156.897L190.952 155.897L93.1722 158.118L107.202 84.0175L160.852 50.9275L113.792 -67.1026L113.832 -68.0025L-26.2878 28.6275L-139.218 -63.9626L-172.838 57.7475L-173.358 57.8475L-172.998 58.2975L-173.008 58.2775ZM92.1222 158.277L3.77225 199.017L105.932 85.3675L92.1222 158.277ZM128.482 228.678L144.192 302.818L91.6922 264.868L128.492 228.678L128.482 228.678ZM162.222 262.337L130.102 228.358L172.342 233.868L194.062 254.168L162.212 262.327L162.222 262.337ZM161.472 262.998L145.082 302.298L129.632 229.318L161.472 262.998ZM-47.7178 301.297L-27.0378 311.998L-88.8778 315.068L-47.7178 301.297ZM-47.0078 300.537L-44.6278 295.717L13.9522 298.417L15.4422 309.887L-25.0478 311.897L-47.0078 300.527L-47.0078 300.537ZM-96.8178 252.508L-39.6078 190.917L0.552154 200.697L-81.5078 255.727L-96.8178 252.497L-96.8178 252.508ZM-82.6678 256.508L-130.078 288.307L-97.6078 253.357L-82.6578 256.508L-82.6678 256.508ZM56.5722 299.387L67.9022 288.248L138.782 303.188L56.5722 299.387ZM134.482 303.988L47.5022 308.308L55.5922 300.347L134.472 303.988L134.482 303.988ZM55.2122 299.327L14.8422 297.467L12.1222 276.498L66.7322 288.008L55.2122 299.337L55.2122 299.327ZM54.2422 300.287L46.0122 308.387L16.4522 309.857L14.9822 298.477L54.2522 300.287L54.2422 300.287ZM44.9422 309.438L19.6222 334.337L16.5822 310.847L44.9422 309.438ZM46.4422 309.368L139.872 304.727L20.9121 334.467L46.4422 309.357L46.4422 309.368ZM68.7622 287.417L90.9622 265.587L142.732 303.008L68.7622 287.417ZM67.5822 287.167L11.9822 275.447L2.41214 201.587L2.46219 201.618L90.1422 264.988L67.5922 287.167L67.5822 287.167ZM-4.07785 167.927L1.08218 199.368L-27.7678 178.188L-6.19784 154.967L-4.06784 167.917L-4.07785 167.927ZM-0.537812 199.417L-38.8279 190.097L-28.4579 178.927L-0.547822 199.417L-0.537812 199.417ZM10.9522 275.237L-30.2378 266.558L1.49222 202.207L10.9522 275.237ZM-1.98776 174.477L-5.33786 154.047L19.2622 127.568L1.87222 198.008L-1.98776 174.477ZM-5.54782 152.808L-6.44784 147.327L15.5422 130.107L-5.54782 152.808ZM-6.62777 146.197L-9.21774 130.417L18.4422 126.568L-6.62777 146.197ZM-7.5278 146.897L-37.9478 170.717L-79.5178 140.207L-10.1978 130.558L-7.51779 146.897L-7.5278 146.897ZM-7.34774 148.027L-6.4078 153.737L-28.5778 177.607L-37.1078 171.347L-7.33786 148.037L-7.34774 148.027ZM-29.2678 178.337L-39.9378 189.827L-55.7978 185.967L-37.9278 171.977L-29.2578 178.337L-29.2678 178.337ZM-0.747773 202.787L-49.5578 262.477L-80.1478 256.027L-0.757783 202.777L-0.747773 202.787ZM-0.617769 204.207L-31.2578 266.347L-48.4579 262.727L-0.617769 204.217L-0.617769 204.207ZM-31.7177 267.267L-45.2478 294.707L-73.5478 293.397L-49.1778 263.587L-31.7177 267.267ZM-30.7079 267.477L11.0722 276.287L13.8122 297.438L-44.1578 294.758L-30.7079 267.477ZM15.5622 310.907L18.6222 334.527L-23.2878 312.837L15.5622 310.907ZM143.522 304.847L109.872 344.018L28.2322 384.398L19.8222 335.777L143.532 304.847L143.522 304.847ZM109.912 345.118L184.942 533.027L28.7122 385.277L109.912 345.118ZM110.982 345.118L153.362 354.037L184.882 530.208L110.982 345.118ZM111.102 344.118L144.612 305.118L153.172 352.978L111.102 344.118ZM90.8422 264.287L3.9722 201.487L127.752 227.988L90.8422 264.277L90.8422 264.287ZM2.7222 198.688L20.6322 126.118L21.9622 125.077L20.8522 125.227L21.1422 124.068L19.9522 125.347L-9.38778 129.438L-25.6978 30.0575L105.892 83.9075L2.7222 198.677L2.7222 198.688ZM-29.3378 30.3675L-142.638 93.7975L-171.558 58.5075L-29.3378 30.3675ZM-141.838 94.4975L-26.7277 30.0475L-10.3978 129.577L-80.7079 139.367L-141.838 94.4975ZM-146.808 149.577L-80.9677 140.407L-38.7878 171.367L-57.0578 185.667L-84.8678 178.897L-146.808 149.577ZM-84.8278 179.938L-58.0578 186.457L-130.188 242.937L-84.8278 179.947L-84.8278 179.938ZM-56.8178 186.758L-40.7378 190.677L-97.9778 252.297L-131.498 245.237L-56.8279 186.767L-56.8178 186.758ZM-132.158 246.107L-98.7678 253.147L-132.868 289.857L-132.158 246.117L-132.158 246.107ZM-131.848 290.717L-81.3078 256.827L-50.2778 263.367L-74.7978 293.357L-131.848 290.727L-131.848 290.717ZM-74.3379 294.378L-45.7278 295.697L-48.0378 300.378L-90.9978 314.758L-74.3379 294.378ZM-25.2778 312.947L17.8322 335.257L-46.3578 351.177L-91.1178 316.217L-25.2778 312.947ZM-45.3678 351.967L18.8122 336.047L18.8722 336.487L18.9121 336.447L27.4722 385.898L27.7622 385.757L177.892 527.738L-45.3578 351.957L-45.3678 351.967ZM186.802 531.877L189.122 406.448L242.452 373.668L186.802 531.877ZM242.062 372.728L188.862 405.428L168.212 357.178L242.062 372.728ZM188.132 406.258L185.842 529.858L154.432 354.268L167.032 356.918L188.142 406.247L188.132 406.258ZM154.232 353.208L146.182 308.227L166.542 355.807L154.232 353.217L154.232 353.208ZM145.992 302.727L162.412 263.347L194.922 255.017L205.532 264.938L145.992 302.738L145.992 302.727ZM206.402 264.368L196.072 254.707L238.912 243.728L206.402 264.368ZM239.202 242.618L195.202 253.897L174.032 234.118L239.202 242.618ZM128.852 227.207L3.33218 200.327L92.4522 159.238L171.082 232.717L128.862 227.207L128.852 227.207ZM107.272 82.7975L113.652 -64.6625L159.582 50.5275L107.272 82.7975ZM106.272 82.9875L-25.1978 29.1875L-23.3577 28.1575L-24.0778 28.2975L112.712 -66.0325L106.262 82.9875L106.272 82.9875ZM-138.698 -62.2126L-27.4877 28.9775L-62.3378 35.8775L-171.778 57.5375L-138.698 -62.2025L-138.698 -62.2126Z" fill="url(#paint0_linear_586_8634)"/>
<g style="mix-blend-mode:screen" filter="url(#filter0_d_586_8634)">
<path d="M138.952 307.109C137.222 303.809 138.492 299.729 141.792 297.999C145.092 296.269 149.173 297.539 150.903 300.839C152.633 304.139 151.362 308.219 148.062 309.949C144.762 311.679 140.682 310.409 138.952 307.109Z" fill="url(#paint1_radial_586_8634)"/>
<path d="M-4.38817 203.721C-6.16817 200.321 -4.85824 196.111 -1.45823 194.331C1.94177 192.551 6.15178 193.861 7.93178 197.261C9.71178 200.661 8.40185 204.871 5.00185 206.651C1.60185 208.431 -2.60817 207.121 -4.38817 203.721Z" fill="url(#paint2_radial_586_8634)"/>
<path d="M158.942 51.3884C158.572 50.6784 158.842 49.8085 159.552 49.4385C160.262 49.0685 161.132 49.3384 161.502 50.0484C161.872 50.7584 161.602 51.6285 160.892 51.9985C160.182 52.3685 159.312 52.0984 158.942 51.3884Z" fill="url(#paint3_radial_586_8634)"/>
<path d="M104.153 85.0674C103.403 83.6374 103.953 81.8674 105.383 81.1174C106.813 80.3674 108.583 80.9174 109.333 82.3474C110.083 83.7774 109.533 85.5474 108.103 86.2974C106.673 87.0474 104.903 86.4974 104.153 85.0674Z" fill="url(#paint4_radial_586_8634)"/>
<path d="M89.8726 160.041C89.0926 158.561 89.6626 156.731 91.1426 155.951C92.6226 155.171 94.4526 155.741 95.2326 157.221C96.0126 158.701 95.4426 160.531 93.9626 161.311C92.4826 162.091 90.6526 161.521 89.8726 160.041Z" fill="url(#paint5_radial_586_8634)"/>
<path d="M189.603 157.11C189.213 156.36 189.503 155.43 190.253 155.03C191.003 154.64 191.933 154.93 192.333 155.68C192.723 156.43 192.433 157.36 191.683 157.76C190.933 158.15 190.003 157.86 189.603 157.11Z" fill="url(#paint6_radial_586_8634)"/>
<path d="M242.773 301.208C242.333 300.368 242.653 299.338 243.493 298.898C244.333 298.458 245.363 298.778 245.803 299.618C246.243 300.458 245.923 301.488 245.083 301.928C244.243 302.368 243.213 302.048 242.773 301.208Z" fill="url(#paint7_radial_586_8634)"/>
<path d="M239.044 244.738C238.134 242.998 238.804 240.838 240.544 239.928C242.284 239.018 244.444 239.688 245.354 241.428C246.264 243.168 245.594 245.328 243.854 246.238C242.114 247.148 239.954 246.478 239.044 244.738Z" fill="url(#paint8_radial_586_8634)"/>
<path d="M125.223 230.399C124.143 228.339 124.933 225.799 126.993 224.719C129.053 223.639 131.593 224.429 132.673 226.489C133.753 228.549 132.963 231.089 130.903 232.169C128.843 233.249 126.303 232.459 125.223 230.399Z" fill="url(#paint9_radial_586_8634)"/>
<path d="M159.493 264.249C158.743 262.829 159.293 261.069 160.713 260.329C162.133 259.579 163.893 260.129 164.633 261.549C165.383 262.969 164.833 264.729 163.413 265.469C161.993 266.219 160.233 265.669 159.493 264.249Z" fill="url(#paint10_radial_586_8634)"/>
<path d="M17.5128 127.218C16.7328 125.728 17.3027 123.888 18.7927 123.108C20.2827 122.328 22.1228 122.898 22.9028 124.388C23.6828 125.878 23.1128 127.719 21.6228 128.499C20.1328 129.279 18.2928 128.708 17.5128 127.218Z" fill="url(#paint11_radial_586_8634)"/>
<path d="M14.1125 298.869C13.6025 298.709 13.3225 298.169 13.4825 297.669C13.6425 297.159 14.1824 296.879 14.6824 297.039C15.1924 297.199 15.4724 297.739 15.3124 298.239C15.1524 298.749 14.6125 299.029 14.1125 298.869Z" fill="url(#paint12_radial_586_8634)"/>
<path d="M55.2022 300.478C54.8522 300.368 54.6523 299.998 54.7623 299.648C54.8723 299.298 55.2422 299.098 55.5922 299.208C55.9422 299.318 56.1423 299.688 56.0323 300.038C55.9223 300.388 55.5522 300.588 55.2022 300.478Z" fill="url(#paint13_radial_586_8634)"/>
<path d="M11.1019 277.067C10.4319 276.857 10.0519 276.147 10.2619 275.467C10.4719 274.797 11.1819 274.417 11.8619 274.627C12.5319 274.837 12.9119 275.547 12.7019 276.227C12.4919 276.897 11.7819 277.277 11.1019 277.067Z" fill="url(#paint14_radial_586_8634)"/>
<path d="M8.04353 174.84C7.50353 174.67 7.20361 174.1 7.37361 173.57C7.54361 173.04 8.11363 172.73 8.64363 172.9C9.18363 173.07 9.47355 173.64 9.31355 174.17C9.15355 174.7 8.57353 175.01 8.04353 174.84Z" fill="url(#paint15_radial_586_8634)"/>
<path d="M41.2518 183.069C40.7518 182.909 40.4718 182.379 40.6218 181.869C40.7718 181.359 41.3117 181.089 41.8217 181.239C42.3217 181.399 42.6018 181.929 42.4518 182.439C42.2918 182.939 41.7618 183.219 41.2518 183.069Z" fill="url(#paint16_radial_586_8634)"/>
<path d="M119.183 237.9C118.573 237.71 118.233 237.06 118.423 236.44C118.613 235.83 119.263 235.49 119.883 235.68C120.493 235.87 120.833 236.52 120.643 237.14C120.453 237.75 119.803 238.09 119.183 237.9Z" fill="url(#paint17_radial_586_8634)"/>
<path d="M134.233 255.808C133.703 255.638 133.403 255.078 133.573 254.548C133.743 254.018 134.303 253.718 134.833 253.888C135.363 254.058 135.663 254.618 135.493 255.148C135.323 255.678 134.763 255.978 134.233 255.808Z" fill="url(#paint18_radial_586_8634)"/>
<path d="M132.953 249.19C132.553 249.06 132.323 248.63 132.453 248.23C132.583 247.83 133.013 247.6 133.413 247.73C133.813 247.86 134.043 248.29 133.913 248.69C133.783 249.09 133.353 249.32 132.953 249.19Z" fill="url(#paint19_radial_586_8634)"/>
<path d="M146.932 158.24C146.462 158.09 146.202 157.59 146.342 157.12C146.492 156.65 146.992 156.389 147.462 156.529C147.932 156.679 148.192 157.179 148.052 157.649C147.902 158.119 147.402 158.38 146.932 158.24Z" fill="url(#paint20_radial_586_8634)"/>
<path d="M98.4224 93.6009C97.8824 93.4309 97.5825 92.8609 97.7525 92.3209C97.9225 91.7809 98.4925 91.4808 99.0325 91.6508C99.5725 91.8208 99.8724 92.3909 99.7024 92.9309C99.5324 93.4709 98.9624 93.7709 98.4224 93.6009Z" fill="url(#paint21_radial_586_8634)"/>
<path d="M108.223 44.4807C107.773 44.3407 107.523 43.8607 107.663 43.4107C107.803 42.9607 108.283 42.7107 108.733 42.8507C109.183 42.9907 109.433 43.4707 109.293 43.9207C109.153 44.3707 108.673 44.6207 108.223 44.4807Z" fill="url(#paint22_radial_586_8634)"/>
<path d="M54.782 63.3596C54.332 63.2196 54.082 62.7396 54.222 62.2996C54.362 61.8496 54.842 61.5996 55.282 61.7396C55.732 61.8796 55.982 62.3596 55.842 62.7996C55.702 63.2496 55.222 63.4996 54.782 63.3596Z" fill="url(#paint23_radial_586_8634)"/>
<path d="M10.1722 5.15999C9.41219 4.91999 8.98224 4.10999 9.22224 3.34999C9.46224 2.58999 10.2723 2.15998 11.0323 2.39998C11.7923 2.63998 12.2222 3.44997 11.9822 4.20997C11.7422 4.96997 10.9322 5.39999 10.1722 5.15999Z" fill="url(#paint24_radial_586_8634)"/>
<path d="M90.3529 266.707C89.3629 266.397 88.8129 265.347 89.1229 264.367C89.4329 263.387 90.4829 262.827 91.4629 263.137C92.4529 263.447 93.0028 264.497 92.6928 265.477C92.3828 266.457 91.3329 267.017 90.3529 266.707Z" fill="url(#paint25_radial_586_8634)"/>
<path d="M67.4724 288.588C66.9824 288.438 66.7124 287.918 66.8624 287.428C67.0124 286.938 67.5324 286.668 68.0224 286.818C68.5124 286.968 68.7824 287.488 68.6324 287.978C68.4824 288.468 67.9624 288.738 67.4724 288.588Z" fill="url(#paint26_radial_586_8634)"/>
<path d="M110.072 303.068C109.692 302.948 109.482 302.548 109.602 302.168C109.722 301.788 110.122 301.578 110.502 301.698C110.882 301.818 111.092 302.218 110.972 302.598C110.852 302.978 110.452 303.188 110.072 303.068Z" fill="url(#paint27_radial_586_8634)"/>
<path d="M104.733 276.22C104.153 276.04 103.823 275.42 104.003 274.83C104.183 274.25 104.803 273.92 105.393 274.1C105.973 274.28 106.303 274.9 106.123 275.49C105.943 276.07 105.323 276.4 104.733 276.22Z" fill="url(#paint28_radial_586_8634)"/>
<path d="M205.922 266.367C205.152 266.127 204.722 265.307 204.962 264.537C205.202 263.767 206.022 263.337 206.792 263.577C207.562 263.817 207.992 264.637 207.752 265.407C207.512 266.177 206.692 266.607 205.922 266.367Z" fill="url(#paint29_radial_586_8634)"/>
<path d="M194.673 255.721C193.963 255.501 193.563 254.741 193.783 254.031C194.003 253.321 194.763 252.921 195.473 253.141C196.183 253.361 196.583 254.121 196.363 254.831C196.143 255.541 195.383 255.941 194.673 255.721Z" fill="url(#paint30_radial_586_8634)"/>
<path d="M172.033 234.79C171.133 234.51 170.622 233.55 170.912 232.65C171.192 231.75 172.152 231.24 173.052 231.53C173.952 231.81 174.462 232.77 174.172 233.67C173.892 234.57 172.933 235.08 172.033 234.79Z" fill="url(#paint31_radial_586_8634)"/>
<path d="M138.753 203.498C138.023 203.268 137.623 202.498 137.843 201.768C138.073 201.038 138.843 200.638 139.573 200.858C140.303 201.088 140.703 201.858 140.483 202.588C140.253 203.318 139.483 203.718 138.753 203.498Z" fill="url(#paint32_radial_586_8634)"/>
<path d="M117.603 183.169C117.123 183.019 116.853 182.509 117.003 182.019C117.153 181.529 117.663 181.269 118.153 181.419C118.633 181.569 118.903 182.079 118.753 182.569C118.603 183.049 118.093 183.319 117.603 183.169Z" fill="url(#paint33_radial_586_8634)"/>
</g>
</g>
<defs>
<filter id="filter0_d_586_8634" x="-285.728" y="-75.7988" width="537.728" height="688.799" filterUnits="userSpaceOnUse" color-interpolation-filters="sRGB">
<feFlood flood-opacity="0" result="BackgroundImageFix"/>
<feColorMatrix in="SourceAlpha" type="matrix" values="0 0 0 0 0 0 0 0 0 0 0 0 0 0 0 0 0 0 127 0" result="hardAlpha"/>
<feOffset/>
<feGaussianBlur stdDeviation="3"/>
<feColorMatrix type="matrix" values="0 0 0 0 0 0 0 0 0 0.94902 0 0 0 0 1 0 0 0 0.7 0"/>
<feBlend mode="normal" in2="BackgroundImageFix" result="effect1_dropShadow_586_8634"/>
<feBlend mode="normal" in="SourceGraphic" in2="effect1_dropShadow_586_8634" result="shape"/>
</filter>
<linearGradient id="paint0_linear_586_8634" x1="182.052" y1="175.308" x2="30.1922" y2="235.478" gradientUnits="userSpaceOnUse">
<stop stop-color="#0085E6"/>
<stop offset="0.13" stop-color="#007FDE" stop-opacity="0.96"/>
<stop offset="0.38" stop-color="#0071CA" stop-opacity="0.84"/>
<stop offset="0.72" stop-color="#005BA9" stop-opacity="0.66"/>
<stop offset="1" stop-color="#00478C" stop-opacity="0.49"/>
</linearGradient>
<radialGradient id="paint1_radial_586_8634" cx="0" cy="0" r="1" gradientUnits="userSpaceOnUse" gradientTransform="translate(144.993 304.099) rotate(107.32) scale(6.74999 6.75003)">
<stop offset="0.19" stop-color="#00FFFF"/>
<stop offset="0.4" stop-color="#00FCFD" stop-opacity="0.99"/>
<stop offset="0.51" stop-color="#02F4F7" stop-opacity="0.96"/>
<stop offset="0.6" stop-color="#05E7EE" stop-opacity="0.91"/>
<stop offset="0.68" stop-color="#0AD4E1" stop-opacity="0.83"/>
<stop offset="0.74" stop-color="#10BBCF" stop-opacity="0.74"/>
<stop offset="0.81" stop-color="#179CBA" stop-opacity="0.62"/>
<stop offset="0.86" stop-color="#2078A1" stop-opacity="0.47"/>
<stop offset="0.92" stop-color="#2A4E83" stop-opacity="0.31"/>
<stop offset="0.97" stop-color="#351F63" stop-opacity="0.13"/>
<stop offset="1" stop-color="#3D004D" stop-opacity="0"/>
</radialGradient>
<radialGradient id="paint2_radial_586_8634" cx="0" cy="0" r="1" gradientUnits="userSpaceOnUse" gradientTransform="translate(1.82207 200.605) rotate(107.32) scale(6.96 6.95999)">
<stop offset="0.19" stop-color="#00FFFF"/>
<stop offset="0.4" stop-color="#00FCFD" stop-opacity="0.99"/>
<stop offset="0.51" stop-color="#02F4F7" stop-opacity="0.96"/>
<stop offset="0.6" stop-color="#05E7EE" stop-opacity="0.91"/>
<stop offset="0.68" stop-color="#0AD4E1" stop-opacity="0.83"/>
<stop offset="0.74" stop-color="#10BBCF" stop-opacity="0.74"/>
<stop offset="0.81" stop-color="#179CBA" stop-opacity="0.62"/>
<stop offset="0.86" stop-color="#2078A1" stop-opacity="0.47"/>
<stop offset="0.92" stop-color="#2A4E83" stop-opacity="0.31"/>
<stop offset="0.97" stop-color="#351F63" stop-opacity="0.13"/>
<stop offset="1" stop-color="#3D004D" stop-opacity="0"/>
</radialGradient>
<radialGradient id="paint3_radial_586_8634" cx="0" cy="0" r="1" gradientUnits="userSpaceOnUse" gradientTransform="translate(160.287 50.8274) rotate(107.32) scale(1.44 1.44003)">
<stop offset="0.19" stop-color="#00FFFF"/>
<stop offset="0.4" stop-color="#00FCFD" stop-opacity="0.99"/>
<stop offset="0.51" stop-color="#02F4F7" stop-opacity="0.96"/>
<stop offset="0.6" stop-color="#05E7EE" stop-opacity="0.91"/>
<stop offset="0.68" stop-color="#0AD4E1" stop-opacity="0.83"/>
<stop offset="0.74" stop-color="#10BBCF" stop-opacity="0.74"/>
<stop offset="0.81" stop-color="#179CBA" stop-opacity="0.62"/>
<stop offset="0.86" stop-color="#2078A1" stop-opacity="0.47"/>
<stop offset="0.92" stop-color="#2A4E83" stop-opacity="0.31"/>
<stop offset="0.97" stop-color="#351F63" stop-opacity="0.13"/>
<stop offset="1" stop-color="#3D004D" stop-opacity="0"/>
</radialGradient>
<radialGradient id="paint4_radial_586_8634" cx="0" cy="0" r="1" gradientUnits="userSpaceOnUse" gradientTransform="translate(106.813 83.8121) rotate(107.32) scale(2.93 2.92997)">
<stop offset="0.19" stop-color="#00FFFF"/>
<stop offset="0.4" stop-color="#00FCFD" stop-opacity="0.99"/>
<stop offset="0.51" stop-color="#02F4F7" stop-opacity="0.96"/>
<stop offset="0.6" stop-color="#05E7EE" stop-opacity="0.91"/>
<stop offset="0.68" stop-color="#0AD4E1" stop-opacity="0.83"/>
<stop offset="0.74" stop-color="#10BBCF" stop-opacity="0.74"/>
<stop offset="0.81" stop-color="#179CBA" stop-opacity="0.62"/>
<stop offset="0.86" stop-color="#2078A1" stop-opacity="0.47"/>
<stop offset="0.92" stop-color="#2A4E83" stop-opacity="0.31"/>
<stop offset="0.97" stop-color="#351F63" stop-opacity="0.13"/>
<stop offset="1" stop-color="#3D004D" stop-opacity="0"/>
</radialGradient>
<radialGradient id="paint5_radial_586_8634" cx="0" cy="0" r="1" gradientUnits="userSpaceOnUse" gradientTransform="translate(92.621 158.748) rotate(107.32) scale(3.03002 3.02999)">
<stop offset="0.19" stop-color="#00FFFF"/>
<stop offset="0.4" stop-color="#00FCFD" stop-opacity="0.99"/>
<stop offset="0.51" stop-color="#02F4F7" stop-opacity="0.96"/>
<stop offset="0.6" stop-color="#05E7EE" stop-opacity="0.91"/>
<stop offset="0.68" stop-color="#0AD4E1" stop-opacity="0.83"/>
<stop offset="0.74" stop-color="#10BBCF" stop-opacity="0.74"/>
<stop offset="0.81" stop-color="#179CBA" stop-opacity="0.62"/>
<stop offset="0.86" stop-color="#2078A1" stop-opacity="0.47"/>
<stop offset="0.92" stop-color="#2A4E83" stop-opacity="0.31"/>
<stop offset="0.97" stop-color="#351F63" stop-opacity="0.13"/>
<stop offset="1" stop-color="#3D004D" stop-opacity="0"/>
</radialGradient>
<radialGradient id="paint6_radial_586_8634" cx="0" cy="0" r="1" gradientUnits="userSpaceOnUse" gradientTransform="translate(191.019 156.51) rotate(107.32) scale(1.54001 1.53999)">
<stop offset="0.19" stop-color="#00FFFF"/>
<stop offset="0.4" stop-color="#00FCFD" stop-opacity="0.99"/>
<stop offset="0.51" stop-color="#02F4F7" stop-opacity="0.96"/>
<stop offset="0.6" stop-color="#05E7EE" stop-opacity="0.91"/>
<stop offset="0.68" stop-color="#0AD4E1" stop-opacity="0.83"/>
<stop offset="0.74" stop-color="#10BBCF" stop-opacity="0.74"/>
<stop offset="0.81" stop-color="#179CBA" stop-opacity="0.62"/>
<stop offset="0.86" stop-color="#2078A1" stop-opacity="0.47"/>
<stop offset="0.92" stop-color="#2A4E83" stop-opacity="0.31"/>
<stop offset="0.97" stop-color="#351F63" stop-opacity="0.13"/>
<stop offset="1" stop-color="#3D004D" stop-opacity="0"/>
</radialGradient>
<radialGradient id="paint7_radial_586_8634" cx="0" cy="0" r="1" gradientUnits="userSpaceOnUse" gradientTransform="translate(244.358 300.538) rotate(107.32) scale(1.71001)">
<stop offset="0.19" stop-color="#00FFFF"/>
<stop offset="0.4" stop-color="#00FCFD" stop-opacity="0.99"/>
<stop offset="0.51" stop-color="#02F4F7" stop-opacity="0.96"/>
<stop offset="0.6" stop-color="#05E7EE" stop-opacity="0.91"/>
<stop offset="0.68" stop-color="#0AD4E1" stop-opacity="0.83"/>
<stop offset="0.74" stop-color="#10BBCF" stop-opacity="0.74"/>
<stop offset="0.81" stop-color="#179CBA" stop-opacity="0.62"/>
<stop offset="0.86" stop-color="#2078A1" stop-opacity="0.47"/>
<stop offset="0.92" stop-color="#2A4E83" stop-opacity="0.31"/>
<stop offset="0.97" stop-color="#351F63" stop-opacity="0.13"/>
<stop offset="1" stop-color="#3D004D" stop-opacity="0"/>
</radialGradient>
<radialGradient id="paint8_radial_586_8634" cx="0" cy="0" r="1" gradientUnits="userSpaceOnUse" gradientTransform="translate(242.263 243.205) rotate(107.32) scale(3.56)">
<stop offset="0.19" stop-color="#00FFFF"/>
<stop offset="0.4" stop-color="#00FCFD" stop-opacity="0.99"/>
<stop offset="0.51" stop-color="#02F4F7" stop-opacity="0.96"/>
<stop offset="0.6" stop-color="#05E7EE" stop-opacity="0.91"/>
<stop offset="0.68" stop-color="#0AD4E1" stop-opacity="0.83"/>
<stop offset="0.74" stop-color="#10BBCF" stop-opacity="0.74"/>
<stop offset="0.81" stop-color="#179CBA" stop-opacity="0.62"/>
<stop offset="0.86" stop-color="#2078A1" stop-opacity="0.47"/>
<stop offset="0.92" stop-color="#2A4E83" stop-opacity="0.31"/>
<stop offset="0.97" stop-color="#351F63" stop-opacity="0.13"/>
<stop offset="1" stop-color="#3D004D" stop-opacity="0"/>
</radialGradient>
<radialGradient id="paint9_radial_586_8634" cx="0" cy="0" r="1" gradientUnits="userSpaceOnUse" gradientTransform="translate(129.006 228.564) rotate(107.32) scale(4.2 4.19999)">
<stop offset="0.19" stop-color="#00FFFF"/>
<stop offset="0.4" stop-color="#00FCFD" stop-opacity="0.99"/>
<stop offset="0.51" stop-color="#02F4F7" stop-opacity="0.96"/>
<stop offset="0.6" stop-color="#05E7EE" stop-opacity="0.91"/>
<stop offset="0.68" stop-color="#0AD4E1" stop-opacity="0.83"/>
<stop offset="0.74" stop-color="#10BBCF" stop-opacity="0.74"/>
<stop offset="0.81" stop-color="#179CBA" stop-opacity="0.62"/>
<stop offset="0.86" stop-color="#2078A1" stop-opacity="0.47"/>
<stop offset="0.92" stop-color="#2A4E83" stop-opacity="0.31"/>
<stop offset="0.97" stop-color="#351F63" stop-opacity="0.13"/>
<stop offset="1" stop-color="#3D004D" stop-opacity="0"/>
</radialGradient>
<radialGradient id="paint10_radial_586_8634" cx="0" cy="0" r="1" gradientUnits="userSpaceOnUse" gradientTransform="translate(162.131 263.018) rotate(107.32) scale(2.91001 2.91)">
<stop offset="0.19" stop-color="#00FFFF"/>
<stop offset="0.4" stop-color="#00FCFD" stop-opacity="0.99"/>
<stop offset="0.51" stop-color="#02F4F7" stop-opacity="0.96"/>
<stop offset="0.6" stop-color="#05E7EE" stop-opacity="0.91"/>
<stop offset="0.68" stop-color="#0AD4E1" stop-opacity="0.83"/>
<stop offset="0.74" stop-color="#10BBCF" stop-opacity="0.74"/>
<stop offset="0.81" stop-color="#179CBA" stop-opacity="0.62"/>
<stop offset="0.86" stop-color="#2078A1" stop-opacity="0.47"/>
<stop offset="0.92" stop-color="#2A4E83" stop-opacity="0.31"/>
<stop offset="0.97" stop-color="#351F63" stop-opacity="0.13"/>
<stop offset="1" stop-color="#3D004D" stop-opacity="0"/>
</radialGradient>
<radialGradient id="paint11_radial_586_8634" cx="0" cy="0" r="1" gradientUnits="userSpaceOnUse" gradientTransform="translate(20.261 125.926) rotate(107.32) scale(3.04001 3.04001)">
<stop offset="0.19" stop-color="#00FFFF"/>
<stop offset="0.4" stop-color="#00FCFD" stop-opacity="0.99"/>
<stop offset="0.51" stop-color="#02F4F7" stop-opacity="0.96"/>
<stop offset="0.6" stop-color="#05E7EE" stop-opacity="0.91"/>
<stop offset="0.68" stop-color="#0AD4E1" stop-opacity="0.83"/>
<stop offset="0.74" stop-color="#10BBCF" stop-opacity="0.74"/>
<stop offset="0.81" stop-color="#179CBA" stop-opacity="0.62"/>
<stop offset="0.86" stop-color="#2078A1" stop-opacity="0.47"/>
<stop offset="0.92" stop-color="#2A4E83" stop-opacity="0.31"/>
<stop offset="0.97" stop-color="#351F63" stop-opacity="0.13"/>
<stop offset="1" stop-color="#3D004D" stop-opacity="0"/>
</radialGradient>
<radialGradient id="paint12_radial_586_8634" cx="0" cy="0" r="1" gradientUnits="userSpaceOnUse" gradientTransform="translate(14.4481 298.071) rotate(107.319) scale(0.960005 0.95998)">
<stop offset="0.19" stop-color="#00FFFF"/>
<stop offset="0.4" stop-color="#00FCFD" stop-opacity="0.99"/>
<stop offset="0.51" stop-color="#02F4F7" stop-opacity="0.96"/>
<stop offset="0.6" stop-color="#05E7EE" stop-opacity="0.91"/>
<stop offset="0.68" stop-color="#0AD4E1" stop-opacity="0.83"/>
<stop offset="0.74" stop-color="#10BBCF" stop-opacity="0.74"/>
<stop offset="0.81" stop-color="#179CBA" stop-opacity="0.62"/>
<stop offset="0.86" stop-color="#2078A1" stop-opacity="0.47"/>
<stop offset="0.92" stop-color="#2A4E83" stop-opacity="0.31"/>
<stop offset="0.97" stop-color="#351F63" stop-opacity="0.13"/>
<stop offset="1" stop-color="#3D004D" stop-opacity="0"/>
</radialGradient>
<radialGradient id="paint13_radial_586_8634" cx="0" cy="0" r="1" gradientUnits="userSpaceOnUse" gradientTransform="translate(55.4631 299.966) rotate(107.32) scale(0.67001)">
<stop offset="0.19" stop-color="#00FFFF"/>
<stop offset="0.4" stop-color="#00FCFD" stop-opacity="0.99"/>
<stop offset="0.51" stop-color="#02F4F7" stop-opacity="0.96"/>
<stop offset="0.6" stop-color="#05E7EE" stop-opacity="0.91"/>
<stop offset="0.68" stop-color="#0AD4E1" stop-opacity="0.83"/>
<stop offset="0.74" stop-color="#10BBCF" stop-opacity="0.74"/>
<stop offset="0.81" stop-color="#179CBA" stop-opacity="0.62"/>
<stop offset="0.86" stop-color="#2078A1" stop-opacity="0.47"/>
<stop offset="0.92" stop-color="#2A4E83" stop-opacity="0.31"/>
<stop offset="0.97" stop-color="#351F63" stop-opacity="0.13"/>
<stop offset="1" stop-color="#3D004D" stop-opacity="0"/>
</radialGradient>
<radialGradient id="paint14_radial_586_8634" cx="0" cy="0" r="1" gradientUnits="userSpaceOnUse" gradientTransform="translate(11.5442 275.973) rotate(107.32) scale(1.27 1.26998)">
<stop offset="0.19" stop-color="#00FFFF"/>
<stop offset="0.4" stop-color="#00FCFD" stop-opacity="0.99"/>
<stop offset="0.51" stop-color="#02F4F7" stop-opacity="0.96"/>
<stop offset="0.6" stop-color="#05E7EE" stop-opacity="0.91"/>
<stop offset="0.68" stop-color="#0AD4E1" stop-opacity="0.83"/>
<stop offset="0.74" stop-color="#10BBCF" stop-opacity="0.74"/>
<stop offset="0.81" stop-color="#179CBA" stop-opacity="0.62"/>
<stop offset="0.86" stop-color="#2078A1" stop-opacity="0.47"/>
<stop offset="0.92" stop-color="#2A4E83" stop-opacity="0.31"/>
<stop offset="0.97" stop-color="#351F63" stop-opacity="0.13"/>
<stop offset="1" stop-color="#3D004D" stop-opacity="0"/>
</radialGradient>
<radialGradient id="paint15_radial_586_8634" cx="0" cy="0" r="1" gradientUnits="userSpaceOnUse" gradientTransform="translate(8.39693 173.984) rotate(107.32) scale(1.02 1.01998)">
<stop offset="0.19" stop-color="#00FFFF"/>
<stop offset="0.4" stop-color="#00FCFD" stop-opacity="0.99"/>
<stop offset="0.51" stop-color="#02F4F7" stop-opacity="0.96"/>
<stop offset="0.6" stop-color="#05E7EE" stop-opacity="0.91"/>
<stop offset="0.68" stop-color="#0AD4E1" stop-opacity="0.83"/>
<stop offset="0.74" stop-color="#10BBCF" stop-opacity="0.74"/>
<stop offset="0.81" stop-color="#179CBA" stop-opacity="0.62"/>
<stop offset="0.86" stop-color="#2078A1" stop-opacity="0.47"/>
<stop offset="0.92" stop-color="#2A4E83" stop-opacity="0.31"/>
<stop offset="0.97" stop-color="#351F63" stop-opacity="0.13"/>
<stop offset="1" stop-color="#3D004D" stop-opacity="0"/>
</radialGradient>
<radialGradient id="paint16_radial_586_8634" cx="0" cy="0" r="1" gradientUnits="userSpaceOnUse" gradientTransform="translate(41.5927 182.272) rotate(107.319) scale(0.960005 0.95998)">
<stop offset="0.19" stop-color="#00FFFF"/>
<stop offset="0.4" stop-color="#00FCFD" stop-opacity="0.99"/>
<stop offset="0.51" stop-color="#02F4F7" stop-opacity="0.96"/>
<stop offset="0.6" stop-color="#05E7EE" stop-opacity="0.91"/>
<stop offset="0.68" stop-color="#0AD4E1" stop-opacity="0.83"/>
<stop offset="0.74" stop-color="#10BBCF" stop-opacity="0.74"/>
<stop offset="0.81" stop-color="#179CBA" stop-opacity="0.62"/>
<stop offset="0.86" stop-color="#2078A1" stop-opacity="0.47"/>
<stop offset="0.92" stop-color="#2A4E83" stop-opacity="0.31"/>
<stop offset="0.97" stop-color="#351F63" stop-opacity="0.13"/>
<stop offset="1" stop-color="#3D004D" stop-opacity="0"/>
</radialGradient>
<radialGradient id="paint17_radial_586_8634" cx="0" cy="0" r="1" gradientUnits="userSpaceOnUse" gradientTransform="translate(119.587 236.9) rotate(107.321) scale(1.15999 1.16004)">
<stop offset="0.19" stop-color="#00FFFF"/>
<stop offset="0.4" stop-color="#00FCFD" stop-opacity="0.99"/>
<stop offset="0.51" stop-color="#02F4F7" stop-opacity="0.96"/>
<stop offset="0.6" stop-color="#05E7EE" stop-opacity="0.91"/>
<stop offset="0.68" stop-color="#0AD4E1" stop-opacity="0.83"/>
<stop offset="0.74" stop-color="#10BBCF" stop-opacity="0.74"/>
<stop offset="0.81" stop-color="#179CBA" stop-opacity="0.62"/>
<stop offset="0.86" stop-color="#2078A1" stop-opacity="0.47"/>
<stop offset="0.92" stop-color="#2A4E83" stop-opacity="0.31"/>
<stop offset="0.97" stop-color="#351F63" stop-opacity="0.13"/>
<stop offset="1" stop-color="#3D004D" stop-opacity="0"/>
</radialGradient>
<radialGradient id="paint18_radial_586_8634" cx="0" cy="0" r="1" gradientUnits="userSpaceOnUse" gradientTransform="translate(134.6 254.965) rotate(107.32) scale(1.01002)">
<stop offset="0.19" stop-color="#00FFFF"/>
<stop offset="0.4" stop-color="#00FCFD" stop-opacity="0.99"/>
<stop offset="0.51" stop-color="#02F4F7" stop-opacity="0.96"/>
<stop offset="0.6" stop-color="#05E7EE" stop-opacity="0.91"/>
<stop offset="0.68" stop-color="#0AD4E1" stop-opacity="0.83"/>
<stop offset="0.74" stop-color="#10BBCF" stop-opacity="0.74"/>
<stop offset="0.81" stop-color="#179CBA" stop-opacity="0.62"/>
<stop offset="0.86" stop-color="#2078A1" stop-opacity="0.47"/>
<stop offset="0.92" stop-color="#2A4E83" stop-opacity="0.31"/>
<stop offset="0.97" stop-color="#351F63" stop-opacity="0.13"/>
<stop offset="1" stop-color="#3D004D" stop-opacity="0"/>
</radialGradient>
<radialGradient id="paint19_radial_586_8634" cx="0" cy="0" r="1" gradientUnits="userSpaceOnUse" gradientTransform="translate(133.241 248.573) rotate(107.319) scale(0.770008 0.769983)">
<stop offset="0.19" stop-color="#00FFFF"/>
<stop offset="0.4" stop-color="#00FCFD" stop-opacity="0.99"/>
<stop offset="0.51" stop-color="#02F4F7" stop-opacity="0.96"/>
<stop offset="0.6" stop-color="#05E7EE" stop-opacity="0.91"/>
<stop offset="0.68" stop-color="#0AD4E1" stop-opacity="0.83"/>
<stop offset="0.74" stop-color="#10BBCF" stop-opacity="0.74"/>
<stop offset="0.81" stop-color="#179CBA" stop-opacity="0.62"/>
<stop offset="0.86" stop-color="#2078A1" stop-opacity="0.47"/>
<stop offset="0.92" stop-color="#2A4E83" stop-opacity="0.31"/>
<stop offset="0.97" stop-color="#351F63" stop-opacity="0.13"/>
<stop offset="1" stop-color="#3D004D" stop-opacity="0"/>
</radialGradient>
<radialGradient id="paint20_radial_586_8634" cx="0" cy="0" r="1" gradientUnits="userSpaceOnUse" gradientTransform="translate(147.26 157.497) rotate(107.32) scale(0.890006 0.889986)">
<stop offset="0.19" stop-color="#00FFFF"/>
<stop offset="0.4" stop-color="#00FCFD" stop-opacity="0.99"/>
<stop offset="0.51" stop-color="#02F4F7" stop-opacity="0.96"/>
<stop offset="0.6" stop-color="#05E7EE" stop-opacity="0.91"/>
<stop offset="0.68" stop-color="#0AD4E1" stop-opacity="0.83"/>
<stop offset="0.74" stop-color="#10BBCF" stop-opacity="0.74"/>
<stop offset="0.81" stop-color="#179CBA" stop-opacity="0.62"/>
<stop offset="0.86" stop-color="#2078A1" stop-opacity="0.47"/>
<stop offset="0.92" stop-color="#2A4E83" stop-opacity="0.31"/>
<stop offset="0.97" stop-color="#351F63" stop-opacity="0.13"/>
<stop offset="1" stop-color="#3D004D" stop-opacity="0"/>
</radialGradient>
<radialGradient id="paint21_radial_586_8634" cx="0" cy="0" r="1" gradientUnits="userSpaceOnUse" gradientTransform="translate(98.7816 92.7393) rotate(107.32) scale(1.02 1.01998)">
<stop offset="0.19" stop-color="#00FFFF"/>
<stop offset="0.4" stop-color="#00FCFD" stop-opacity="0.99"/>
<stop offset="0.51" stop-color="#02F4F7" stop-opacity="0.96"/>
<stop offset="0.6" stop-color="#05E7EE" stop-opacity="0.91"/>
<stop offset="0.68" stop-color="#0AD4E1" stop-opacity="0.83"/>
<stop offset="0.74" stop-color="#10BBCF" stop-opacity="0.74"/>
<stop offset="0.81" stop-color="#179CBA" stop-opacity="0.62"/>
<stop offset="0.86" stop-color="#2078A1" stop-opacity="0.47"/>
<stop offset="0.92" stop-color="#2A4E83" stop-opacity="0.31"/>
<stop offset="0.97" stop-color="#351F63" stop-opacity="0.13"/>
<stop offset="1" stop-color="#3D004D" stop-opacity="0"/>
</radialGradient>
<radialGradient id="paint22_radial_586_8634" cx="0" cy="0" r="1" gradientUnits="userSpaceOnUse" gradientTransform="translate(108.542 43.7745) rotate(107.32) scale(0.860003)">
<stop offset="0.19" stop-color="#00FFFF"/>
<stop offset="0.4" stop-color="#00FCFD" stop-opacity="0.99"/>
<stop offset="0.51" stop-color="#02F4F7" stop-opacity="0.96"/>
<stop offset="0.6" stop-color="#05E7EE" stop-opacity="0.91"/>
<stop offset="0.68" stop-color="#0AD4E1" stop-opacity="0.83"/>
<stop offset="0.74" stop-color="#10BBCF" stop-opacity="0.74"/>
<stop offset="0.81" stop-color="#179CBA" stop-opacity="0.62"/>
<stop offset="0.86" stop-color="#2078A1" stop-opacity="0.47"/>
<stop offset="0.92" stop-color="#2A4E83" stop-opacity="0.31"/>
<stop offset="0.97" stop-color="#351F63" stop-opacity="0.13"/>
<stop offset="1" stop-color="#3D004D" stop-opacity="0"/>
</radialGradient>
<radialGradient id="paint23_radial_586_8634" cx="0" cy="0" r="1" gradientUnits="userSpaceOnUse" gradientTransform="translate(55.0952 62.6585) rotate(107.32) scale(0.849998)">
<stop offset="0.19" stop-color="#00FFFF"/>
<stop offset="0.4" stop-color="#00FCFD" stop-opacity="0.99"/>
<stop offset="0.51" stop-color="#02F4F7" stop-opacity="0.96"/>
<stop offset="0.6" stop-color="#05E7EE" stop-opacity="0.91"/>
<stop offset="0.68" stop-color="#0AD4E1" stop-opacity="0.83"/>
<stop offset="0.74" stop-color="#10BBCF" stop-opacity="0.74"/>
<stop offset="0.81" stop-color="#179CBA" stop-opacity="0.62"/>
<stop offset="0.86" stop-color="#2078A1" stop-opacity="0.47"/>
<stop offset="0.92" stop-color="#2A4E83" stop-opacity="0.31"/>
<stop offset="0.97" stop-color="#351F63" stop-opacity="0.13"/>
<stop offset="1" stop-color="#3D004D" stop-opacity="0"/>
</radialGradient>
<radialGradient id="paint24_radial_586_8634" cx="0" cy="0" r="1" gradientUnits="userSpaceOnUse" gradientTransform="translate(10.6456 3.89111) rotate(107.32) scale(1.44 1.44001)">
<stop offset="0.19" stop-color="#00FFFF"/>
<stop offset="0.4" stop-color="#00FCFD" stop-opacity="0.99"/>
<stop offset="0.51" stop-color="#02F4F7" stop-opacity="0.96"/>
<stop offset="0.6" stop-color="#05E7EE" stop-opacity="0.91"/>
<stop offset="0.68" stop-color="#0AD4E1" stop-opacity="0.83"/>
<stop offset="0.74" stop-color="#10BBCF" stop-opacity="0.74"/>
<stop offset="0.81" stop-color="#179CBA" stop-opacity="0.62"/>
<stop offset="0.86" stop-color="#2078A1" stop-opacity="0.47"/>
<stop offset="0.92" stop-color="#2A4E83" stop-opacity="0.31"/>
<stop offset="0.97" stop-color="#351F63" stop-opacity="0.13"/>
<stop offset="1" stop-color="#3D004D" stop-opacity="0"/>
</radialGradient>
<radialGradient id="paint25_radial_586_8634" cx="0" cy="0" r="1" gradientUnits="userSpaceOnUse" gradientTransform="translate(90.9705 265.043) rotate(107.32) scale(1.87 1.86998)">
<stop offset="0.19" stop-color="#00FFFF"/>
<stop offset="0.4" stop-color="#00FCFD" stop-opacity="0.99"/>
<stop offset="0.51" stop-color="#02F4F7" stop-opacity="0.96"/>
<stop offset="0.6" stop-color="#05E7EE" stop-opacity="0.91"/>
<stop offset="0.68" stop-color="#0AD4E1" stop-opacity="0.83"/>
<stop offset="0.74" stop-color="#10BBCF" stop-opacity="0.74"/>
<stop offset="0.81" stop-color="#179CBA" stop-opacity="0.62"/>
<stop offset="0.86" stop-color="#2078A1" stop-opacity="0.47"/>
<stop offset="0.92" stop-color="#2A4E83" stop-opacity="0.31"/>
<stop offset="0.97" stop-color="#351F63" stop-opacity="0.13"/>
<stop offset="1" stop-color="#3D004D" stop-opacity="0"/>
</radialGradient>
<radialGradient id="paint26_radial_586_8634" cx="0" cy="0" r="1" gradientUnits="userSpaceOnUse" gradientTransform="translate(67.8058 287.83) rotate(107.321) scale(0.919983 0.920008)">
<stop offset="0.19" stop-color="#00FFFF"/>
<stop offset="0.4" stop-color="#00FCFD" stop-opacity="0.99"/>
<stop offset="0.51" stop-color="#02F4F7" stop-opacity="0.96"/>
<stop offset="0.6" stop-color="#05E7EE" stop-opacity="0.91"/>
<stop offset="0.68" stop-color="#0AD4E1" stop-opacity="0.83"/>
<stop offset="0.74" stop-color="#10BBCF" stop-opacity="0.74"/>
<stop offset="0.81" stop-color="#179CBA" stop-opacity="0.62"/>
<stop offset="0.86" stop-color="#2078A1" stop-opacity="0.47"/>
<stop offset="0.92" stop-color="#2A4E83" stop-opacity="0.31"/>
<stop offset="0.97" stop-color="#351F63" stop-opacity="0.13"/>
<stop offset="1" stop-color="#3D004D" stop-opacity="0"/>
</radialGradient>
<radialGradient id="paint27_radial_586_8634" cx="0" cy="0" r="1" gradientUnits="userSpaceOnUse" gradientTransform="translate(110.347 302.501) rotate(107.319) scale(0.720023 0.720003)">
<stop offset="0.19" stop-color="#00FFFF"/>
<stop offset="0.4" stop-color="#00FCFD" stop-opacity="0.99"/>
<stop offset="0.51" stop-color="#02F4F7" stop-opacity="0.96"/>
<stop offset="0.6" stop-color="#05E7EE" stop-opacity="0.91"/>
<stop offset="0.68" stop-color="#0AD4E1" stop-opacity="0.83"/>
<stop offset="0.74" stop-color="#10BBCF" stop-opacity="0.74"/>
<stop offset="0.81" stop-color="#179CBA" stop-opacity="0.62"/>
<stop offset="0.86" stop-color="#2078A1" stop-opacity="0.47"/>
<stop offset="0.92" stop-color="#2A4E83" stop-opacity="0.31"/>
<stop offset="0.97" stop-color="#351F63" stop-opacity="0.13"/>
<stop offset="1" stop-color="#3D004D" stop-opacity="0"/>
</radialGradient>
<radialGradient id="paint28_radial_586_8634" cx="0" cy="0" r="1" gradientUnits="userSpaceOnUse" gradientTransform="translate(105.124 275.284) rotate(107.32) scale(1.11)">
<stop offset="0.19" stop-color="#00FFFF"/>
<stop offset="0.4" stop-color="#00FCFD" stop-opacity="0.99"/>
<stop offset="0.51" stop-color="#02F4F7" stop-opacity="0.96"/>
<stop offset="0.6" stop-color="#05E7EE" stop-opacity="0.91"/>
<stop offset="0.68" stop-color="#0AD4E1" stop-opacity="0.83"/>
<stop offset="0.74" stop-color="#10BBCF" stop-opacity="0.74"/>
<stop offset="0.81" stop-color="#179CBA" stop-opacity="0.62"/>
<stop offset="0.86" stop-color="#2078A1" stop-opacity="0.47"/>
<stop offset="0.92" stop-color="#2A4E83" stop-opacity="0.31"/>
<stop offset="0.97" stop-color="#351F63" stop-opacity="0.13"/>
<stop offset="1" stop-color="#3D004D" stop-opacity="0"/>
</radialGradient>
<radialGradient id="paint29_radial_586_8634" cx="0" cy="0" r="1" gradientUnits="userSpaceOnUse" gradientTransform="translate(206.428 265.098) rotate(107.32) scale(1.46002)">
<stop offset="0.19" stop-color="#00FFFF"/>
<stop offset="0.4" stop-color="#00FCFD" stop-opacity="0.99"/>
<stop offset="0.51" stop-color="#02F4F7" stop-opacity="0.96"/>
<stop offset="0.6" stop-color="#05E7EE" stop-opacity="0.91"/>
<stop offset="0.68" stop-color="#0AD4E1" stop-opacity="0.83"/>
<stop offset="0.74" stop-color="#10BBCF" stop-opacity="0.74"/>
<stop offset="0.81" stop-color="#179CBA" stop-opacity="0.62"/>
<stop offset="0.86" stop-color="#2078A1" stop-opacity="0.47"/>
<stop offset="0.92" stop-color="#2A4E83" stop-opacity="0.31"/>
<stop offset="0.97" stop-color="#351F63" stop-opacity="0.13"/>
<stop offset="1" stop-color="#3D004D" stop-opacity="0"/>
</radialGradient>
<radialGradient id="paint30_radial_586_8634" cx="0" cy="0" r="1" gradientUnits="userSpaceOnUse" gradientTransform="translate(195.148 254.555) rotate(107.32) scale(1.35001)">
<stop offset="0.19" stop-color="#00FFFF"/>
<stop offset="0.4" stop-color="#00FCFD" stop-opacity="0.99"/>
<stop offset="0.51" stop-color="#02F4F7" stop-opacity="0.96"/>
<stop offset="0.6" stop-color="#05E7EE" stop-opacity="0.91"/>
<stop offset="0.68" stop-color="#0AD4E1" stop-opacity="0.83"/>
<stop offset="0.74" stop-color="#10BBCF" stop-opacity="0.74"/>
<stop offset="0.81" stop-color="#179CBA" stop-opacity="0.62"/>
<stop offset="0.86" stop-color="#2078A1" stop-opacity="0.47"/>
<stop offset="0.92" stop-color="#2A4E83" stop-opacity="0.31"/>
<stop offset="0.97" stop-color="#351F63" stop-opacity="0.13"/>
<stop offset="1" stop-color="#3D004D" stop-opacity="0"/>
</radialGradient>
<radialGradient id="paint31_radial_586_8634" cx="0" cy="0" r="1" gradientUnits="userSpaceOnUse" gradientTransform="translate(172.602 233.267) rotate(107.32) scale(1.71 1.71)">
<stop offset="0.19" stop-color="#00FFFF"/>
<stop offset="0.4" stop-color="#00FCFD" stop-opacity="0.99"/>
<stop offset="0.51" stop-color="#02F4F7" stop-opacity="0.96"/>
<stop offset="0.6" stop-color="#05E7EE" stop-opacity="0.91"/>
<stop offset="0.68" stop-color="#0AD4E1" stop-opacity="0.83"/>
<stop offset="0.74" stop-color="#10BBCF" stop-opacity="0.74"/>
<stop offset="0.81" stop-color="#179CBA" stop-opacity="0.62"/>
<stop offset="0.86" stop-color="#2078A1" stop-opacity="0.47"/>
<stop offset="0.92" stop-color="#2A4E83" stop-opacity="0.31"/>
<stop offset="0.97" stop-color="#351F63" stop-opacity="0.13"/>
<stop offset="1" stop-color="#3D004D" stop-opacity="0"/>
</radialGradient>
<radialGradient id="paint32_radial_586_8634" cx="0" cy="0" r="1" gradientUnits="userSpaceOnUse" gradientTransform="translate(139.229 202.296) rotate(107.32) scale(1.38001 1.38)">
<stop offset="0.19" stop-color="#00FFFF"/>
<stop offset="0.4" stop-color="#00FCFD" stop-opacity="0.99"/>
<stop offset="0.51" stop-color="#02F4F7" stop-opacity="0.96"/>
<stop offset="0.6" stop-color="#05E7EE" stop-opacity="0.91"/>
<stop offset="0.68" stop-color="#0AD4E1" stop-opacity="0.83"/>
<stop offset="0.74" stop-color="#10BBCF" stop-opacity="0.74"/>
<stop offset="0.81" stop-color="#179CBA" stop-opacity="0.62"/>
<stop offset="0.86" stop-color="#2078A1" stop-opacity="0.47"/>
<stop offset="0.92" stop-color="#2A4E83" stop-opacity="0.31"/>
<stop offset="0.97" stop-color="#351F63" stop-opacity="0.13"/>
<stop offset="1" stop-color="#3D004D" stop-opacity="0"/>
</radialGradient>
<radialGradient id="paint33_radial_586_8634" cx="0" cy="0" r="1" gradientUnits="userSpaceOnUse" gradientTransform="translate(117.936 182.406) rotate(107.32) scale(0.920002)">
<stop offset="0.19" stop-color="#00FFFF"/>
<stop offset="0.4" stop-color="#00FCFD" stop-opacity="0.99"/>
<stop offset="0.51" stop-color="#02F4F7" stop-opacity="0.96"/>
<stop offset="0.6" stop-color="#05E7EE" stop-opacity="0.91"/>
<stop offset="0.68" stop-color="#0AD4E1" stop-opacity="0.83"/>
<stop offset="0.74" stop-color="#10BBCF" stop-opacity="0.74"/>
<stop offset="0.81" stop-color="#179CBA" stop-opacity="0.62"/>
<stop offset="0.86" stop-color="#2078A1" stop-opacity="0.47"/>
<stop offset="0.92" stop-color="#2A4E83" stop-opacity="0.31"/>
<stop offset="0.97" stop-color="#351F63" stop-opacity="0.13"/>
<stop offset="1" stop-color="#3D004D" stop-opacity="0"/>
</radialGradient>
</defs>
</svg>
